<?xml version="1.0" encoding="UTF-8"?>
<svg xmlns="http://www.w3.org/2000/svg" id="_图层_1" version="1.1" viewBox="0 0 1024 200">
  
  <defs>
    <style>
.st0, .st1 {
        fill: #082255;
      }

      .st2, .st3 {
        fill: #fc5508;
      }

      .st3, .st4, .st1 {
        isolation: isolate;
      }

      .st3, .st1 {
      }
    </style>
  </defs>
  <path class="st2" d="M574.82,150h-7.57l91.21-91.21c5.63-5.63,13.26-8.79,21.21-8.79h7.57l-91.21,91.21c-5.63,5.63-13.26,8.79-21.21,8.79Z" />
  <path class="st0" d="M679.67,150h7.57l-91.21-91.21c-5.63-5.63-13.26-8.79-21.21-8.79h-7.57l91.21,91.21c5.63,5.63,13.26,8.79,21.21,8.79Z" />
  <g class="st4">
    <g class="st1" aria-label="PHOENI" transform="translate(23.15 130.5) scale(0.1 -0.1)"><path d="M56 0V719H641Q678 719 708.5 700.5Q739 682 757.5 651.5Q776 621 776 584V386Q776 350 757.5 319.0Q739 288 708.5 270.0Q678 252 641 252L176 251V0ZM194 373H636Q644 373 649.5 378.0Q655 383 655 391V581Q655 588 649.5 593.5Q644 599 636 599H194Q187 599 181.5 593.5Q176 588 176 581V391Q176 383 181.5 378.0Q187 373 194 373Z" /><path d="M57 0V720H177V421H673V720H793V0H673V299H177V0Z" transform="translate(991 0)" /><path d="M189 0Q152 0 121.0 18.0Q90 36 72.0 67.0Q54 98 54 135V585Q54 622 72.0 653.0Q90 684 121.0 702.0Q152 720 189 720H639Q676 720 706.5 702.0Q737 684 755.5 653.0Q774 622 774 585V135Q774 98 755.5 67.0Q737 36 706.5 18.0Q676 0 639 0ZM192 121H634Q642 121 647.5 126.0Q653 131 653 139V581Q653 589 647.5 594.0Q642 599 634 599H192Q185 599 179.5 594.0Q174 589 174 581V139Q174 131 179.5 126.0Q185 121 192 121Z" transform="translate(2042 0)" /><path d="M58 0V720H719V599H179V421H614V299H179V121H719V0Z" transform="translate(3070 0)" /><path d="M56 0V720H193L655 170V720H776V0H639L176 551V0Z" transform="translate(4036 0)" /><path d="M48 0V720H167V0Z" transform="translate(5068 0)" /></g></g>
  <g class="st4">
    <g class="st3" aria-label="Lab" transform="translate(749.55 130.5) scale(0.1 -0.1)"><path d="M57 0V721H177V121H777V0Z" /><path d="M186 0Q149 0 118.5 18.5Q88 37 70.0 67.0Q52 97 52 134V350H522V442Q522 450 516.5 455.5Q511 461 503 461H52V580H507Q545 580 575.0 561.5Q605 543 623.0 513.0Q641 483 641 446V0ZM190 119H522V241H171V138Q171 130 176.5 124.5Q182 119 190 119Z" transform="translate(979 0)" /><path d="M54 0V770H173V580H510Q546 580 576.5 561.5Q607 543 625.0 513.0Q643 483 643 446V134Q643 97 625.0 67.0Q607 37 576.5 18.5Q546 0 510 0ZM192 119H506Q513 119 518.5 124.5Q524 130 524 138V442Q524 450 518.5 455.5Q513 461 506 461H192Q185 461 179.0 455.5Q173 450 173 442V138Q173 130 179.0 124.5Q185 119 192 119Z" transform="translate(1873 0)" /></g></g>
</svg>
