<?xml version="1.0" encoding="UTF-8"?>
<svg id="_图层_1" xmlns="http://www.w3.org/2000/svg" version="1.1" viewBox="0 0 1024 1024">
  <!-- Generator: Adobe Illustrator 29.4.0, SVG Export Plug-In . SVG Version: 2.1.0 Build 152)  -->
  <defs>
    <style>
      @font-face {
        font-family: 'Orbitron-SemiBold';
        src: url('../fonts/Orbitron_SemiBold.ttf') format('truetype');
        font-weight: 600;
        font-style: normal;
        font-display: swap;
      }
.st0 {
        fill: #fb560b;
      }

      .st1, .st2 {
        fill: #082255;
      }

      .st3, .st4 {
        fill: #fc5508;
      }

      .st4, .st5, .st2 {
        isolation: isolate;
      }

      .st4, .st2 {
        font-family: Orbitron-SemiBold, Orbitron;
        font-size: 100px;
        font-weight: 600;
        letter-spacing: .2em;
      }
    </style>
  </defs>
  <path class="st3" d="M574.82,900h-7.57l91.21-91.21c5.63-5.63,13.26-8.79,21.21-8.79h7.57l-91.21,91.21c-5.63,5.63-13.26,8.79-21.21,8.79Z"/>
  <path class="st1" d="M679.67,900h7.57l-91.21-91.21c-5.63-5.63-13.26-8.79-21.21-8.79h-7.57l91.21,91.21c5.63,5.63,13.26,8.79,21.21,8.79Z"/>
  <g class="st5">
    <g class="st5">
      <text class="st2" transform="translate(23.15 880.5)"><tspan x="0" y="0">PHOENI</tspan></text>
    </g>
  </g>
  <g class="st5">
    <g class="st5">
      <text class="st4" transform="translate(749.55 880.5)"><tspan x="0" y="0">Lab</tspan></text>
    </g>
  </g>
  <path class="st3" d="M773.17,372.56c100.95-29.02,138.44-47.14,173.95-104.24,19.88-31.98,23.66-66.26,23.8-89.97-21.03,54.13-77.08,75.84-120.97,106.09,22.15-16.39,55.21-45.22,83.1-90.46,36.18-58.69,45.26-115.13,47.96-145.3-20.69,43-52.15,79.4-89.62,107.88-76.4,48.88-58.63,135.74-124.97,168.31-22.48,10.62-45.51,21.09-63.37,39.14,21.73-40.87,69.87-50.54,79.93-99.37,4.04-22.69,17.47-38.89,32.4-55.35-89.96,37.46-150.86,120.79-181.17,213.1-17.86,46.7-37.53,79.59-51.55,100.2-13.94,20.51-30.08,40.33-35.36,46.79-13.51,16.54-25.66,30.01-35.04,40.01,10.92,11.36,21.83,22.71,32.75,34.07,55.04-30.68,96.49-52.39,110.52-58.42,7.02-3.02,15.24-6.47,15.24-6.47,7.94-3.33,15.82-6.58,23.65-9.74-20.36,0-40.85-2.29-60.49,4.42,1.07-1.07,2.51-2.24,4.37-3.15,1.63-.8,3-1.02,3.39-1.19,20.35-9.45,40.27-12.73,62.26-15.24,35.52-2.95,79.84-11.58,102.8-42.3-20.87,6.27-41.62,9.12-63.37,7.37-18.47-1.55-38.36-4.73-56.17,1.48,28.64-26.94,72.22-15.98,106.66-27.21,36.23-8.46,75.86-36.54,92.08-71.51-36.67,21.69-72.77,29.9-114.81,30.24-14.06.09-27.18.94-40.73,5.13,55.08-31.87,133.33-22.24,174.26-79.57,6.35-7.52,13.63-17.41,20.39-29.78,6.81-12.46,11.24-24.06,14.17-33.58-83.28,90.01-190.85,47.34-256.26,129.78-30.98,29.16-66.7,122.17-119.62,153.13,24.61-25.8,45.31-54.95,62.92-86.11,32.77-63.34,77-118.05,146.89-138.14v-.04h0Z"/>
  <path class="st0" d="M448.78,674.48c-.77.61-4.19,3.27-8.83,7.08-2.77,2.27-3.8,3.17-6.44,5.31-1.83,1.49-4.11,3.29-7.77,6.11-15.52,11.96-23.28,17.95-28.16,21.45-1.49,1.07-16.39,11.71-31.84,21.12-4.83,2.94-8.44,4.99-9.76,5.73-5.97,3.36-11.09,5.99-14.88,7.86,27.45-9.55,49.81-19.24,66.57-27.18,10.84-5.13,23.9-11.32,40.32-20.93,6.66-3.9,7.55-4.67,23.91-14.44,10.68-6.37,16.1-9.51,24.87-14.97,7.16-4.46,12.9-8.2,16.5-10.56-10.47-6.02-20.94-12.03-31.42-18.05-20.09,20.11-28.99,28.25-33.07,31.47Z"/>
  <path class="st1" d="M650.63,730.85c-3.42-2.41-12.84-9.79-31.68-24.56-2.17-1.7-9.51-7.46-19.05-15.1-7.19-5.76-10.87-8.71-15.23-12.41-4.96-4.2-4.19-3.71-14.69-12.76-4.26-3.67-6.7-5.75-10.71-9.34-3.5-3.14-6.22-5.65-7.71-7.04-2.93-2.73-5.55-5.24-7.83-7.45l-32.2-33.6c-7.72-7.74-15.22-15.62-22.39-23.89l-.03.02c-1.21-1.4-2.36-2.76-3.53-4.11-9.89-11.53-19.17-23.34-27.87-35.46-28.14-39.17-54.61-93.07-61.91-112.11-.61-1.59-3.04-8.05-6.71-16.83-4.1-9.81-4.64-10.32-8.64-19.7-6.26-14.69-6.85-17.94-12.06-28.96-.9-1.9-2.97-6.21-6.58-12.95-16.54-30.88-28.72-53.61-51.44-74.68-3.74-3.47-7.85-6.79-16.06-13.42-15.58-12.58-29.32-22.62-40.05-30.14-3.89-2.73-7.76-5.42-11.59-8.21-12.96-9.42-31.58-22.25-42.43-29.81-50.99-35.57-51.68-33.56-71.06-49.19-18.46-14.9-31.12-27.44-37.76-34.27-24.02-24.71-35.36-42.69-39.26-49.12-3.87-6.37-6.78-11.84-8.71-15.62-.5,11.79-.71,23.58,0,35.36,5.78,48.46,27.19,93.76,63.86,125.17,2.61,2.21,5.2,4.44,7.78,6.67,7.88,6.85,24.5,20.92,41.32,34.26,13.82,10.96,13.81,10.27,33.05,25.08,14.61,11.24,26.34,20.65,34.02,26.89-3-1.49-5.92-3.04-8.8-4.76-13.54-8.4-27.1-16.65-41.17-24.11-35.96-18.89-74.82-39.25-103.58-69.03-4.69-5.11-9.68-9.59-14.95-14.09,1.67,14.69,5.83,36.65,17.3,60.72,3.21,6.74,9.39,19.53,20.45,33.39,17.53,21.98,37,33.31,75.94,55.98,11.89,6.92,25.1,14.03,43.66,25.45,1.87,1.15,8.24,5.08,16.78,10.12,7.66,4.52,14.84,8.63,22.63,12.88,1.43.78,2.62,1.42,3.43,1.86-2.69-1.07-6.84-2.71-11.93-4.7-14.29-5.6-24.47-9.46-27.68-10.68-24.64-9.42-48.24-20.26-48.24-20.26-12.16-5.58-27.2-12.53-46.08-23.3-15.57-8.87-28.23-17.19-37.44-23.58,1.26,4.47,3.29,10.72,6.56,17.87,0,0,2.1,4.6,4.79,9.38,16.92,30.16,36.65,48.2,36.65,48.2,17.48,15.98,34.15,23.9,45.44,29.27,5.25,2.5,15.23,6.27,35.18,13.81,28.01,10.58,31.2,11.31,41.79,15.71,10.7,4.44,26.06,11.43,44.17,21.96-2.39-1.05-5.87-2.58-10.08-4.42-6.9-3.01-10.38-4.53-12.22-5.25-6.45-2.54-11.12-3.58-18.11-5.24-8.81-2.09-17.53-4.53-26.35-6.56-32.65-7.51-58.67-13.62-87.82-26.17-2.62-1.13-4.7-2.06-5.84-2.58.76,1.45,1.52,2.89,2.28,4.34,4.15,6.12,25.04,36.24,55.32,53.96,17.63,10.31,37.37,16,46.16,18.65,14.1,4.26,24.18,6.07,31.97,7.63,18.09,3.63,43.9,9.93,76.54,21.63-27.77-5.25-49.39-8.17-64.33-9.87-5.88-.67-11.68-1.27-23.88-2.71-19.7-2.33-33.93-4.23-44.43-5.76-1.92-.28-3.76-.55-5.62-.81,4.43,6.06,11.58,14.53,22.2,22.36,4.97,3.66,8.88,5.84,13.81,8.59,6.64,3.7,19.51,10.83,36.22,15.23,7.27,1.91,14.8,3.22,22.82,3.92,27.62,2.36,53.2,7.82,79.21,17.68-12.25-2.39-22.03-3.02-28.85-3.14-2.56-.04-6.69-.02-14.95.03-7.61.05-13.88.11-18.13.16,11.82,4.12,26.98,9.74,44.37,17.08,5.28,2.23,29.39,12.48,60.68,28.88,13.68,7.17,30.35,16.36,49.04,27.72l40.3,23.21c6.47,4.29,12,7.89,16.26,10.64,4.98,3.21,9.1,5.88,14.59,9.3,5.55,3.46,10,6.14,13.83,8.43,21.18,12.67,31.78,19,45.68,26.4,9.22,4.91,16.34,8.42,22.95,11.68,11.08,5.46,16.61,8.18,22.99,10.82,7.17,2.97,17.3,6.69,30.04,9.83-14.99-7.46-26.47-14.88-34.4-20.47h0ZM288.02,289.61c6.36,0,11.52,5.28,11.52,11.79,0,4.12-2.07,7.75-5.21,9.86l12.27,46.88,39.37,40.28,8.82,33.67,49.56,50.71-5.1,5.21-50.91-52.1-8.82-33.67-39.37-40.28-12.78-48.79c-6.06-.35-10.87-5.47-10.87-11.76s5.16-11.79,11.52-11.79h0ZM269.43,371.28c0-4.13,2.07-7.75,5.21-9.86l-11.72-44.74-39.37-40.28,5.09-5.21,40.74,41.67,12.22,46.66c6.06.35,10.87,5.47,10.87,11.76,0,1.91-.45,3.71-1.24,5.3l33.68,34.47,6.95,26.55,100.47,102.8-5.09,5.21-101.83-104.19-6.96-26.56-32.31-33.06c-1.56.81-3.32,1.27-5.19,1.27-6.36,0-11.52-5.28-11.52-11.79h0ZM451.45,600.01l-155.36-158.95c-1.57.82-3.34,1.29-5.22,1.29-6.36,0-11.52-5.28-11.52-11.79s5.16-11.79,11.52-11.79,11.52,5.28,11.52,11.79c0,1.9-.45,3.68-1.23,5.27l155.39,158.97-5.1,5.21h0Z"/>
  <ellipse class="st1" cx="288.02" cy="301.4" rx="5.76" ry="5.89"/>
  <ellipse class="st1" cx="280.95" cy="371.28" rx="5.76" ry="5.89"/>
  <ellipse class="st1" cx="290.87" cy="430.56" rx="5.76" ry="5.89"/>
</svg>
